# xmcd
#
# Track frame offsets:
#	150
#	121188
#	160043
#	174685
#
# Disc length: 2692 seconds
#
# Revision: 1
# Processed by: cddbd v1.5.2PL0 Copyright (c) Steve Scherf et al.
# Submitted via: audiograbber 1.83.01
#
DISCID=280a8204
DTITLE=Oliver Nelson - Swiss Suite
DYEAR=1971
DGENRE=Jazz
TTITLE0=Swiss Suite
TTITLE1=Stolen Moments
TTITLE2=Black, Brown and Beautiful
TTITLE3=Blues and The Abstract Truth
EXTD=YEAR: 1971
EXTT0=
EXTT1=
EXTT2=
EXTT3=
PLAYORDER=
